<?xml version="1.0" encoding="iso-8859-1"?>
<!-- Generator: Adobe Illustrator 19.0.0, SVG Export Plug-In . SVG Version: 6.00 Build 0)  -->
<svg version="1.1" id="Layer_1" xmlns="http://www.w3.org/2000/svg" xmlns:xlink="http://www.w3.org/1999/xlink" x="0px" y="0px"
	 viewBox="0 0 327.269 327.269" style="enable-background:new 0 0 327.269 327.269;" xml:space="preserve">
<path id="XMLID_232_" d="M314.252,21.628c-5.858-5.858-15.355-5.857-21.213,0.001l-15.251,15.253l-32.491-32.49
	c-5.857-5.857-15.355-5.858-21.213,0c-5.857,5.858-5.857,15.355,0.001,21.213l32.491,32.491l-30.506,30.51l-15.252-15.252
	c-5.857-5.858-15.355-5.858-21.213,0c-5.858,5.858-5.858,15.355,0,21.213l15.253,15.253l-57.276,57.283
	c-14.765-10.463-32.349-16.125-50.813-16.125c-23.543,0-45.679,9.169-62.327,25.816c-16.649,16.648-25.818,38.783-25.818,62.327
	c0,23.544,9.169,45.68,25.818,62.328c16.648,16.649,38.783,25.818,62.327,25.818c23.544,0,45.679-9.169,62.327-25.817
	c16.649-16.648,25.818-38.784,25.818-62.328c0-18.461-5.66-36.042-16.12-50.804l67.777-67.785c0.036-0.036,0.076-0.065,0.112-0.101
	c0.036-0.036,0.065-0.076,0.101-0.112l51.46-51.466c0.052-0.051,0.109-0.093,0.161-0.145c0.052-0.052,0.095-0.109,0.145-0.161
	l25.706-25.709C320.111,36.983,320.111,27.486,314.252,21.628z M137.882,280.238c-10.982,10.982-25.584,17.031-41.114,17.031
	s-30.132-6.048-41.114-17.031c-10.982-10.982-17.031-25.583-17.031-41.114c0-15.531,6.048-30.132,17.031-41.113
	c10.982-10.982,25.583-17.03,41.114-17.03c15.531,0,30.132,6.048,41.114,17.03c10.982,10.981,17.031,25.583,17.031,41.113
	C154.913,254.655,148.864,269.256,137.882,280.238z"/>
<g>
</g>
<g>
</g>
<g>
</g>
<g>
</g>
<g>
</g>
<g>
</g>
<g>
</g>
<g>
</g>
<g>
</g>
<g>
</g>
<g>
</g>
<g>
</g>
<g>
</g>
<g>
</g>
<g>
</g>
</svg>
